<?xml version="1.0" encoding="UTF-8"?>
<svg xmlns="http://www.w3.org/2000/svg" version="1.1" viewBox="0 0 1024 544">
  <defs>
    <style>
      .cls-1 {
        fill: #43a047;
      }
    </style>
  </defs>
  <!-- Generator: Adobe Illustrator 28.6.0, SVG Export Plug-In . SVG Version: 1.2.0 Build 709)  -->
  <g>
    <g id="Layer_1">
      <g>
        <g>
          <g>
            <path class="cls-1" d="M853.8,57.2h52.6v14.2h-36.4v11.9h22.2v14.2h-22.2v13.8h36.4v14.2h-52.6V57.2Z"/>
            <path class="cls-1" d="M912.8,57.2h16.2v39.8c0,10.1,1.9,16.6,13.3,16.6s13.2-6.4,13.2-16.6v-39.8h16.2v38.4c0,21.1-8.2,31.1-29.3,31.1s-29.4-10-29.4-31.1v-38.4Z"/>
          </g>
          <g>
            <path class="cls-1" d="M161.4,318.7h-31.8V121.3h31.8c49.1,0,94.9,10.1,105.7,70h80.3c-12.2-101.2-89.8-134-187.5-134H52.4v326.5h107.5c103.7,0,184.7-36.6,189-153.4h-79.7c-3.9,77.1-53.8,88.4-107.8,88.4Z"/>
            <path class="cls-1" d="M546.6,114.9c33.7,0,55.2,14.2,66,31.3l66.5-27.4c-25.9-44.5-74.3-67.5-131.5-67.5-89.4,0-153.1,53.3-164.4,139.9h82.2c8.8-50.4,41.6-76.4,81.3-76.4Z"/>
            <path class="cls-1" d="M698.1,230.4v153.4h-50.8l-10.8-36.2c-21,28.3-53.3,42-100.2,42-92.4,0-150.7-61.4-154.7-159.2h81.7c3.5,61.6,36.7,95.7,84.8,95.7s67.5-11.8,72.3-46.8h-72.7v-48.9h150.5Z"/>
            <rect class="cls-1" x="737.2" y="57.2" width="77.2" height="134"/>
            <polygon class="cls-1" points="814.5 315.8 814.5 230.4 737.2 230.4 737.2 383.7 970.9 383.7 970.9 315.8 814.5 315.8"/>
          </g>
        </g>
        <g>
          <path class="cls-1" d="M53.6,491.7v-66.7h19.2c5.9,0,11.1,1.3,15.7,3.8,4.5,2.6,8,6.2,10.5,10.9,2.5,4.7,3.7,10.2,3.8,16.3v4.3c0,6.3-1.2,11.8-3.7,16.5-2.5,4.7-6,8.4-10.6,10.9-4.6,2.5-9.9,3.8-16,3.9h-18.8ZM62.5,432.2v52.3h9.4c6.9,0,12.3-2.1,16.1-6.3s5.8-10.2,5.8-18v-3.9c0-7.6-1.8-13.5-5.4-17.7-3.6-4.2-8.8-6.3-15.4-6.4h-10.5Z"/>
          <path class="cls-1" d="M161.8,460.9h-29.4v23.6h34.2v7.2h-43.2v-66.7h42.7v7.2h-33.7v21.5h29.4v7.2Z"/>
          <path class="cls-1" d="M193.9,484.5h32.2v7.2h-41.2v-66.7h9v59.5Z"/>
          <path class="cls-1" d="M277.6,432.2h-21.8v59.5h-8.9v-59.5h-21.8v-7.2h52.5v7.2Z"/>
          <path class="cls-1" d="M328.7,474.3h-28.5l-6.4,17.4h-9.2l25.9-66.7h7.8l26,66.7h-9.2l-6.5-17.4ZM302.9,467.1h23.1l-11.6-31.2-11.5,31.2Z"/>
          <path class="cls-1" d="M441.7,483c-2.3,3.2-5.5,5.7-9.6,7.3-4.1,1.6-8.9,2.4-14.4,2.4s-10.5-1.3-14.7-3.8c-4.3-2.5-7.6-6.2-10-10.9-2.3-4.7-3.6-10.1-3.6-16.3v-5.8c0-10,2.4-17.8,7.2-23.4,4.8-5.5,11.5-8.3,20.1-8.3s12.8,1.8,17.1,5.3c4.3,3.6,7,8.6,7.9,15.1h-9c-1.7-8.9-7-13.3-16.1-13.3s-10.6,2.1-13.6,6.2c-3.1,4.1-4.7,10.1-4.7,18v5.5c0,7.5,1.7,13.4,5.2,17.8,3.5,4.4,8.2,6.6,14.1,6.6s6.3-.4,8.8-1.1c2.5-.7,4.6-2,6.3-3.7v-14.9h-15.7v-7.2h24.6v24.4Z"/>
          <path class="cls-1" d="M488.7,464.7h-16v27h-9v-66.7h22.5c7.7,0,13.5,1.7,17.7,5.1,4.1,3.4,6.2,8.4,6.2,14.9s-1.1,7.8-3.4,10.9c-2.3,3.1-5.5,5.4-9.5,6.9l16,28.3v.5h-9.6l-14.7-27ZM472.7,457.6h13.8c4.4,0,8-1.1,10.6-3.4,2.6-2.3,3.9-5.3,3.9-9.1s-1.3-7.3-3.8-9.5c-2.5-2.2-6.1-3.3-10.8-3.3h-13.7v25.3Z"/>
          <path class="cls-1" d="M568.2,460.9h-29.4v23.6h34.2v7.2h-43.2v-66.7h42.7v7.2h-33.7v21.5h29.4v7.2Z"/>
          <path class="cls-1" d="M629.7,460.9h-29.4v23.6h34.2v7.2h-43.2v-66.7h42.7v7.2h-33.7v21.5h29.4v7.2Z"/>
          <path class="cls-1" d="M705,491.7h-9l-34.2-51.4v51.4h-9v-66.7h9l34.3,51.6v-51.6h8.9v66.7Z"/>
          <path class="cls-1" d="M767.9,484.5h32.2v7.2h-41.2v-66.7h9v59.5Z"/>
          <path class="cls-1" d="M827.1,491.7h-9v-66.7h9v66.7Z"/>
          <path class="cls-1" d="M902.9,491.7h-9l-34.2-51.4v51.4h-9v-66.7h9l34.3,51.6v-51.6h8.9v66.7Z"/>
          <path class="cls-1" d="M964.4,460.9h-29.4v23.6h34.2v7.2h-43.2v-66.7h42.7v7.2h-33.7v21.5h29.4v7.2Z"/>
        </g>
      </g>
    </g>
  </g>
</svg>