<svg width="139" height="21" viewBox="0 0 139 21" fill="none" xmlns="http://www.w3.org/2000/svg">
<path d="M1.92 18.6H11.16V20H0.436V0.399999H1.92V18.6ZM21.8381 20.308C16.1821 20.308 11.7301 15.8 11.7301 10.2C11.7301 4.6 16.1821 0.0919993 21.8381 0.0919993C27.4941 0.0919993 31.9461 4.6 31.9461 10.2C31.9461 15.8 27.4941 20.308 21.8381 20.308ZM21.8381 18.88C26.6821 18.88 30.4621 15.016 30.4621 10.2C30.4621 5.384 26.6821 1.52 21.8381 1.52C16.9941 1.52 13.2141 5.384 13.2141 10.2C13.2141 15.016 16.9941 18.88 21.8381 18.88ZM54.3574 10.872V11.628C54.3574 16.36 50.7454 20.308 44.8934 20.308C38.8174 20.308 34.5894 15.8 34.5894 10.2C34.5894 4.6 38.8174 0.0919993 44.7814 0.0919993C48.4214 0.0919993 51.5854 1.996 53.2094 4.824L51.8934 5.608C50.6054 3.144 47.8614 1.52 44.7814 1.52C39.6294 1.52 36.0734 5.384 36.0734 10.2C36.0734 15.016 39.6294 18.88 44.8934 18.88C49.6534 18.88 52.5374 15.94 52.8454 12.272H44.5294V10.872H54.3574ZM67.0646 20.308C61.4086 20.308 56.9566 15.8 56.9566 10.2C56.9566 4.6 61.4086 0.0919993 67.0646 0.0919993C72.7206 0.0919993 77.1726 4.6 77.1726 10.2C77.1726 15.8 72.7206 20.308 67.0646 20.308ZM67.0646 18.88C71.9086 18.88 75.6886 15.016 75.6886 10.2C75.6886 5.384 71.9086 1.52 67.0646 1.52C62.2206 1.52 58.4406 5.384 58.4406 10.2C58.4406 15.016 62.2206 18.88 67.0646 18.88ZM91.8549 0.399999V1.8H85.6949V20H84.1829V1.8H78.0229V0.399999H91.8549ZM108.544 0.399999L101.404 11.936V20H99.92V11.936L92.78 0.399999H94.46L100.676 10.508L106.864 0.399999H108.544ZM117.924 0.399999C121.452 0.399999 124.028 3.004 124.028 6.476C124.028 9.92 121.452 12.524 117.924 12.524H112.744V20H111.26V0.399999H117.924ZM117.924 11.124C120.612 11.124 122.544 9.164 122.544 6.476C122.544 3.76 120.612 1.8 117.924 1.8H112.744V11.124H117.924ZM129.178 18.6H138.978V20H127.694V0.399999H138.838V1.8H129.178V9.416H138.138V10.816H129.178V18.6Z" fill="white"/>
</svg>
